# xmcd
#
# Track frame offsets: 
#        150
#        12743
#        32753
#        50155
#
# Disc length: 990 seconds
#
# Revision: 5
# Processed by: cddbd v1.5.1PL2 Copyright (c) Steve Scherf et al.
# Submitted via: ExactAudioCopy v0.95b3
#
DISCID=3303dc04
DTITLE=Gorie with Jasmine and Joann - Mickey
DYEAR=2004
DGENRE=JPop
TTITLE0=Mickey (Hawaii version)
TTITLE1=Mickey (Drive version)instrumental
TTITLE2=Mickey (Ukulele version)instrumental
TTITLE3=Bonus Track
EXTD=YEAR: 2004
EXTT0=
EXTT1=
EXTT2=
EXTT3=
PLAYORDER=
